<?xml version="1.0" encoding="utf-8"?>
<!-- Generator: Adobe Illustrator 15.0.0, SVG Export Plug-In . SVG Version: 6.00 Build 0)  -->
<!DOCTYPE svg PUBLIC "-//W3C//DTD SVG 1.1//EN" "http://www.w3.org/Graphics/SVG/1.1/DTD/svg11.dtd">
<svg version="1.1" id="Layer_1" xmlns="http://www.w3.org/2000/svg" xmlns:xlink="http://www.w3.org/1999/xlink" x="0px" y="0px"
	 width="64px" height="64px" viewBox="0 0 64 64" enable-background="new 0 0 64 64" xml:space="preserve">
<title>information</title>
<path fill="#A9A9A9" d="M31,60c14.912,0,27-12.088,27-27C58,18.088,45.912,6,31,6C16.088,6,4,18.088,4,33C4,47.912,16.088,60,31,60z
	 M31,8c13.807,0,25,11.193,25,25c0,13.807-11.193,25-25,25C17.193,58,6,46.807,6,33C6,19.193,17.193,8,31,8z"/>
<path fill="#A9A9A9" d="M31,24c1.656,0,3-1.343,3-3s-1.344-3-3-3c-1.657,0-3,1.343-3,3S29.343,24,31,24z M31,20c0.552,0,1,0.448,1,1
	s-0.448,1-1,1s-1-0.448-1-1S30.448,20,31,20z"/>
<path fill="#A9A9A9" d="M31,50c1.656,0,3-1.344,3-3V29c0-1.657-1.344-3-3-3c-1.657,0-3,1.343-3,3v18C28,48.656,29.343,50,31,50z
	 M30,29c0-0.552,0.448-1,1-1s1,0.448,1,1v18c0,0.553-0.448,1-1,1s-1-0.447-1-1V29z"/>
</svg>
